<svg xmlns="http://www.w3.org/2000/svg" width="166.8" height="226.5" viewBox="0 0 166.8 226.5"><path fill="#f0de7f" stroke="#70683f" stroke-linecap="round" stroke-linejoin="round" stroke-width="4" d="M83.1 224.5L164.2 2H2l81.1 222.5z"/><path fill="#70683f" d="M51.7 68.4l5.4-10.9-7.6-3.3-5.4 10.9-7.5-3.3 5.5-10.9-7.7-3.4 2.8-6.4 8 3.5 6.2-12.3-8.7-3.8 2.8-6.4 9 3.9L60 15.1l7.5 3.3-5.6 11 7.7 3.4 5.4-11 7.5 3.3L77 36l7.7 3.4-2.8 6.4-8-3.5-6.2 12.3 8.6 3.8-2.8 6.4-9-3.9-5.4 10.8zm8.5-17.1L66.5 39l-7.7-3.4L52.7 48z"/></svg>